<svg width="711" height="711" viewBox="0 0 711 711" fill="none" xmlns="http://www.w3.org/2000/svg">
<g clip-path="url(#clip0)">
<path d="M660.215 172.352C689.355 227.578 711 288.508 711 355.5C711 551.837 551.837 711 355.5 711C159.163 711 0 551.837 0 355.5C0 159.163 159.163 0 355.5 0C423.709 0 490.197 20.8731 544.318 54.1776C544.318 54.1776 628.235 111.741 660.215 172.352V172.352Z" fill="#FFA45C"/>
<path d="M711 355.5C711 288.508 689.355 227.578 660.216 172.352C628.235 111.741 544.318 54.1776 544.318 54.1776C490.197 20.8731 423.709 0 355.5 0V711C551.837 711 711 551.837 711 355.5Z" fill="#FA8224"/>
<path d="M561.932 253.046C577.099 285.393 585.896 317.307 585.896 355.5C585.896 482.744 482.744 585.897 355.498 585.897C228.253 585.897 125.103 482.744 125.103 355.5C125.103 228.256 228.256 125.103 355.5 125.103C395.692 125.103 430.305 133.669 463.198 151.761C463.198 151.762 533.187 191.745 561.932 253.046V253.046Z" fill="#FFF4F4"/>
<path d="M585.897 355.5C585.897 317.306 577.1 285.393 561.933 253.046C533.189 191.746 463.2 151.762 463.2 151.762C430.305 133.671 395.692 125.103 355.5 125.103V585.896C482.744 585.897 585.897 482.744 585.897 355.5V355.5Z" fill="#EEE1DC"/>
<path d="M355.5 463.953C415.397 463.953 463.952 415.397 463.952 355.5C463.952 295.604 415.397 247.048 355.5 247.048C295.603 247.048 247.047 295.604 247.047 355.5C247.047 415.397 295.603 463.953 355.5 463.953Z" fill="#FFA45C"/>
<path d="M463.952 355.5C463.952 295.604 415.396 247.048 355.5 247.048V463.953C415.396 463.953 463.952 415.397 463.952 355.5V355.5Z" fill="#FA8224"/>
<path d="M351.116 384.359C345.482 384.359 339.852 382.201 335.568 377.889C327.039 369.303 327.085 355.428 335.67 346.897L606.127 78.2168C614.715 69.6875 628.591 69.7347 637.12 78.3181C645.649 86.9043 645.603 100.781 637.018 109.311L366.561 377.991C362.285 382.237 356.7 384.359 351.116 384.359V384.359Z" fill="#00337A"/>
<path d="M636.527 67.47L616.561 9.81515C613.258 0.279138 601.116 -2.51209 593.981 4.6229L480.654 117.95C477.366 121.238 475.976 125.972 476.963 130.516L493.602 207.101C494.688 212.1 498.475 216.075 503.416 217.399L582.105 238.515C586.822 239.782 591.857 238.434 595.312 234.98L706.994 123.299C713.809 116.483 711.619 104.945 702.78 101.101L643.991 75.5313C640.485 74.0065 637.777 71.0833 636.527 67.47V67.47Z" fill="#38557D"/>
<path d="M637.12 78.3183C636.953 78.1503 636.771 78.0073 636.601 77.8462L336.086 378.362C340.302 382.344 345.702 384.359 351.115 384.359C356.698 384.359 362.285 382.238 366.559 377.992L637.017 109.312C645.605 100.782 645.651 86.9059 637.12 78.3183V78.3183Z" fill="#002659"/>
<path d="M702.739 101.143L643.95 75.5729C642.805 75.0758 641.757 74.4148 640.806 73.644L499.061 215.387C500.354 216.3 501.797 217.017 503.376 217.441L582.065 238.557C586.782 239.824 591.817 238.475 595.272 235.022L706.954 123.34C713.768 116.525 711.578 104.986 702.739 101.143V101.143Z" fill="#6A819F"/>
</g>
<defs>
<clipPath id="clip0">
<rect width="711" height="711" fill="white"/>
</clipPath>
</defs>
</svg>
